<svg xmlns="http://www.w3.org/2000/svg" viewBox="0 0 512 512">
  <rect width="512" height="512" rx="96" fill="#6366f1"/>
  <g transform="translate(256,256)">
    <ellipse cx="0" cy="20" rx="120" ry="140" fill="#f8fafc"/>
    <ellipse cx="-60" cy="-80" rx="40" ry="70" fill="#f8fafc" transform="rotate(-20,-60,-80)"/>
    <ellipse cx="60" cy="-80" rx="40" ry="70" fill="#f8fafc" transform="rotate(20,60,-80)"/>
    <ellipse cx="-60" cy="-80" rx="24" ry="50" fill="#e0e7ff" transform="rotate(-20,-60,-80)"/>
    <ellipse cx="60" cy="-80" rx="24" ry="50" fill="#e0e7ff" transform="rotate(20,60,-80)"/>
    <ellipse cx="-40" cy="-10" rx="18" ry="22" fill="#1e1b4b"/>
    <ellipse cx="40" cy="-10" rx="18" ry="22" fill="#1e1b4b"/>
    <ellipse cx="-36" cy="-16" rx="6" ry="8" fill="#fff"/>
    <ellipse cx="44" cy="-16" rx="6" ry="8" fill="#fff"/>
    <ellipse cx="0" cy="30" rx="14" ry="10" fill="#f9a8d4"/>
    <path d="M-8,45 Q0,60 8,45" stroke="#1e1b4b" stroke-width="3" fill="none" stroke-linecap="round"/>
  </g>
</svg>
